<svg viewBox="0 0 894.26416 227.88027" xmlns="http://www.w3.org/2000/svg" xmlns:xlink="http://www.w3.org/1999/xlink">
 <g>
  <path d="M0,226.69026c0,.66003,.53003,1.19,1.19006,1.19H886.48004c.65997,0,1.19-.52997,1.19-1.19,0-.65997-.53003-1.19-1.19-1.19H1.19006c-.66003,0-1.19006,.53003-1.19006,1.19Z" fill="#3f3d56"/>
  <g>
   <polygon fill="#e6e6e6" points="420.53884 99.24399 420.53884 223.93064 24.66507 223.93064 24.66507 115.18742 37.80203 89.03529 415.12254 89.03529 420.53884 99.24399"/>
   <polygon fill="#2f2e41" points="444.26416 143.94244 420.53884 127.30758 378.51115 97.84755 316.14747 145.29817 24.66507 146.92499 8.67431 147.01303 24.66507 115.18742 37.80203 89.03529 53.81331 27.34948 397.4914 25.99375 415.12254 89.03529 420.53884 99.24399 444.26416 143.94244"/>
   <polygon fill="#e6e6e6" points="271.40831 127.28402 114.14339 127.28402 114.14339 60.85314 192.77585 32.09454 271.40831 60.85314 271.40831 127.28402"/>
   <rect fill="#fff" height="68.12554" width="69.14234" x="37.20559" y="155.8051"/>
   <rect fill="#fff" height="68.12554" width="125.40522" x="132.7847" y="155.8051"/>
   <rect fill="#fff" height="62.70261" width="21.01385" x="281.91524" y="161.22803"/>
   <g>
    <rect fill="var(--primary-svg-color)" height="43.24682" width="42.75538" x="351.3796" y="147.01044"/>
    <rect fill="#e6e6e6" height="43.24682" width="2.94865" x="371.03725" y="147.01044"/>
   </g>
   <g>
    <rect fill="var(--primary-svg-color)" height="43.24682" width="42.75538" x="215.12852" y="72.44517"/>
    <rect fill="#e6e6e6" height="43.24682" width="2.94865" x="234.78617" y="72.44517"/>
   </g>
   <g>
    <rect fill="var(--primary-svg-color)" height="43.24682" width="42.75538" x="136.49606" y="72.44517"/>
    <rect fill="#e6e6e6" height="43.24682" width="2.94865" x="156.15371" y="72.44517"/>
   </g>
  </g>
  <g>
   <polygon fill="#e6e6e6" points="870.53884 99.24399 870.53884 223.93064 474.66507 223.93064 474.66507 115.18742 487.80203 89.03529 865.12254 89.03529 870.53884 99.24399"/>
   <polygon fill="#2f2e41" points="894.26416 143.94244 870.53884 127.30758 828.51115 97.84755 766.14747 145.29817 474.66507 146.92499 458.67431 147.01303 474.66507 115.18742 487.80203 89.03529 503.81331 27.34948 847.4914 25.99375 865.12254 89.03529 870.53884 99.24399 894.26416 143.94244"/>
   <polygon fill="#e6e6e6" points="721.40831 127.28402 564.14339 127.28402 564.14339 60.85314 642.77585 32.09454 721.40831 60.85314 721.40831 127.28402"/>
   <rect fill="#fff" height="68.12554" width="69.14234" x="487.20559" y="155.8051"/>
   <rect fill="#fff" height="68.12554" width="125.40522" x="582.7847" y="155.8051"/>
   <rect fill="#fff" height="62.70261" width="21.01385" x="731.91524" y="161.22803"/>
   <g>
    <rect fill="var(--primary-svg-color)" height="43.24682" width="42.75538" x="801.3796" y="147.01044"/>
    <rect fill="#e6e6e6" height="43.24682" width="2.94865" x="821.03725" y="147.01044"/>
   </g>
   <g>
    <rect fill="var(--primary-svg-color)" height="43.24682" width="42.75538" x="665.12852" y="72.44517"/>
    <rect fill="#e6e6e6" height="43.24682" width="2.94865" x="684.78617" y="72.44517"/>
   </g>
   <g>
    <rect fill="var(--primary-svg-color)" height="43.24682" width="42.75538" x="586.49606" y="72.44517"/>
    <rect fill="#e6e6e6" height="43.24682" width="2.94865" x="606.15371" y="72.44517"/>
   </g>
  </g>
  <rect fill="#3f3d56" height="20" width="20" x="812.26416" y="111.93064"/>
  <rect fill="#3f3d56" height="20" width="20" x="367.26416" y="111.93064"/>
 </g>
 <rect fill="#2f2e41" height="32" width="10" x="226.96672"/>
 <rect fill="#2f2e41" height="32" width="10" x="659.96672"/>
</svg>
