<svg viewBox="0 0 733.82 503.768" xmlns="http://www.w3.org/2000/svg" xmlns:xlink="http://www.w3.org/1999/xlink">
 <g data-name="Group 16" id="Group_16" transform="translate(-196.555 -165.086)">
  <path d="M261.846,378.459a45.126,45.126,0,1,1,0-90.252H672.56a45.126,45.126,0,1,1,0,90.252Z" data-name="Path 204" fill="#e6e6e6" id="Path_204-1880" transform="translate(-20.165 -123.12)"/>
  <path d="M264.96,297.207a39.24,39.24,0,0,0,0,78.48H675.674a39.24,39.24,0,1,0,0-78.48Z" data-name="Path 205" fill="#fff" id="Path_205-1881" transform="translate(-23.279 -126.234)"/>
  <rect data-name="Rectangle 15" fill="#e6e6e6" height="78.48" id="Rectangle_15" transform="translate(364.961 170.972)" width="1.308"/>
  <rect data-name="Rectangle 17" fill="#e6e6e6" height="78.48" id="Rectangle_17" transform="translate(527.808 170.972)" width="1.308"/>
  <rect data-name="Rectangle 7" fill="var(--primary-svg-color)" height="78.48" id="Rectangle_7" transform="translate(366.269 170.972)" width="161.539"/>
  <path d="M276.268,206.815a24,24,0,1,0,24,24,24,24,0,0,0-24-24Zm0,7.2a7.2,7.2,0,1,1-7.2,7.2A7.2,7.2,0,0,1,276.268,214.016Zm0,34.662a17.484,17.484,0,0,1-14.4-7.685c.115-4.8,9.6-7.442,14.4-7.442s14.285,2.642,14.4,7.442a17.513,17.513,0,0,1-14.4,7.685Z" data-name="Path 198" fill="#fff" id="Path_198-1882" transform="translate(170.844 -20.53)"/>
  <path d="M620.7,206.815a24,24,0,1,0,24,24,24,24,0,0,0-24-24Zm0,7.2a7.2,7.2,0,1,1-7.2,7.2A7.2,7.2,0,0,1,620.7,214.015Zm0,34.662a17.484,17.484,0,0,1-14.4-7.685c.115-4.8,9.6-7.442,14.4-7.442s14.285,2.642,14.4,7.442a17.513,17.513,0,0,1-14.4,7.685Z" data-name="Path 200" fill="#e6e6e6" id="Path_200-1883" transform="translate(-336.439 -20.53)"/>
  <path d="M620.7,206.815a24,24,0,1,0,24,24,24,24,0,0,0-24-24Zm0,7.2a7.2,7.2,0,1,1-7.2,7.2A7.2,7.2,0,0,1,620.7,214.015Zm0,34.662a17.484,17.484,0,0,1-14.4-7.685c.115-4.8,9.6-7.442,14.4-7.442s14.285,2.642,14.4,7.442a17.513,17.513,0,0,1-14.4,7.685Z" data-name="Path 242" fill="#e6e6e6" id="Path_242-1884" transform="translate(-10.892 -20.53)"/>
  <rect data-name="Rectangle 9" fill="var(--primary-svg-color)" height="56" id="Rectangle_9" rx="6" transform="translate(419.112 288.229)" width="56"/>
  <ellipse cx="134.439" cy="18" data-name="Ellipse 29" fill="#e6e6e6" id="Ellipse_29" rx="134.439" ry="18" transform="translate(661.497 632.854)"/>
  <rect data-name="Rectangle 12" fill="#e6e6e6" height="56" id="Rectangle_12" rx="6" transform="translate(581.812 288.049)" width="56"/>
  <rect data-name="Rectangle 13" fill="#fff" height="40.798" id="Rectangle_13" transform="translate(589.812 295.83)" width="40.798"/>
  <path d="M253.345,218.766l-7.075-9.1,4.114-3.2,3.35,4.307,11.318-11.946,3.785,3.585Z" data-name="Path 202" fill="#fff" id="Path_202-1885" transform="translate(191.14 106.158)"/>
  <path d="M425.345,218.766l-7.075-9.1,4.114-3.2,3.35,4.307,11.317-11.946,3.785,3.585Z" data-name="Path 203" fill="#e6e6e6" id="Path_203-1886" transform="translate(182.106 106.158)"/>
  <rect data-name="Rectangle 18" fill="#e6e6e6" height="56" id="Rectangle_18" rx="6" transform="translate(256.265 288.049)" width="56"/>
  <rect data-name="Rectangle 19" fill="#fff" height="40.798" id="Rectangle_19" transform="translate(264.265 295.83)" width="40.798"/>
  <path d="M425.345,218.766l-7.075-9.1,4.114-3.2,3.35,4.307,11.317-11.946,3.785,3.585Z" data-name="Path 243" fill="#e6e6e6" id="Path_243-1887" transform="translate(-143.441 106.158)"/>
  <g data-name="Group 15" id="Group_15">
   <path d="M340.66,397.363H327.48l-6.268-50.837,19.452,0Z" data-name="Path 257" fill="#ffb8b8" id="Path_257-1888" transform="translate(545.904 239.259)"/>
   <path d="M320.6,387.355h25.418v16H304.6a16,16,0,0,1,16-16Z" data-name="Path 258" fill="#2f2e41" id="Path_258-1889" transform="translate(543.364 245.5)"/>
   <path d="M223.865,397.363h-13.18l-6.268-50.837,19.452,0Z" data-name="Path 259" fill="#ffb8b8" id="Path_259-1890" transform="translate(528.049 239.259)"/>
   <path d="M203.81,387.355h25.418v16H187.806a16,16,0,0,1,16-16Z" data-name="Path 260" fill="#2f2e41" id="Path_260-1891" transform="translate(525.51 245.5)"/>
   <path d="M487.471,249.585V243.82a37.18,37.18,0,0,1,37.18-37.18h0a37.18,37.18,0,0,1,37.18,37.18v5.764a26.8,26.8,0,0,1-26.8,26.8H514.275a26.8,26.8,0,0,1-26.8-26.8Z" data-name="Path 261" fill="#2f2e41" id="Path_261-1892" transform="translate(308.465 9.946)"/>
   <ellipse cx="28.316" cy="28.316" data-name="Ellipse 36" fill="#ffb8b8" id="Ellipse_36" rx="28.316" ry="28.316" transform="translate(804.801 231.687)"/>
   <path d="M386.583,329.1a10.811,10.811,0,0,1,16.463,1.934l24.273-4.591,6.388,14.07-34.37,6A10.869,10.869,0,0,1,386.583,329.1Z" data-name="Path 263" fill="#ffb8b8" id="Path_263-1893" transform="translate(292.514 28.216)"/>
   <path d="M515.087,284.516l.317.481-39.8,26.221-67.164,21.447a4.044,4.044,0,0,0-2.781,4.31l1.465,12.62a4.036,4.036,0,0,0,4.854,3.48l63.212-13.549a22.833,22.833,0,0,0,8.5-3.742L528.4,303.969A11.5,11.5,0,0,0,515.4,285Z" data-name="Path 264" fill="#ccc" id="Path_264-1894" transform="translate(295.954 21.634)"/>
   <path d="M574.076,590.876a5.209,5.209,0,0,1-4.771-3.115l-60.421-149.3a1.729,1.729,0,0,0-3.238.182L456.351,583.993a5.189,5.189,0,0,1-6.781,3.333l-16.53-6.2a5.175,5.175,0,0,1-3.34-4.271c-7.437-64.782,57.413-228.3,58.069-229.946l.182-.455,59.116,13.077.123.134c23.585,25.73,42.971,188.012,46.618,220.283a5.163,5.163,0,0,1-3.425,5.472l-14.591,5.16a5.139,5.139,0,0,1-1.716.295Z" data-name="Path 265" fill="#2f2e41" id="Path_265-1895" transform="translate(299.543 31.32)"/>
   <path d="M515.547,375.9c-14.323,0-30.291-2.856-35.206-14.642l-.113-.271.153-.251c3.88-6.366,9.007-17.224,6.251-19.263-5.429-4.014-8.064-10.618-7.83-19.628.508-19.559,13.835-36.925,33.163-43.212h0a147.146,147.146,0,0,1,16.443-4.234,27.993,27.993,0,0,1,23.21,5.732,28.276,28.276,0,0,1,10.486,21.755c.2,20.9-3.015,50.015-19.5,70a5.128,5.128,0,0,1-3.036,1.765A140.9,140.9,0,0,1,515.547,375.9Z" data-name="Path 266" fill="#ccc" id="Path_266-1896" transform="translate(307.138 20.219)"/>
   <path d="M506.106,364.845a11.017,11.017,0,0,1,13.464-7.683,10.843,10.843,0,0,1,1.669.618l18.43-16.773,12.818,8.635L526.13,372.966a11,11,0,0,1-12.466,5.288,10.83,10.83,0,0,1-7.558-13.409Z" data-name="Path 267" fill="#ffb8b8" id="Path_267-1897" transform="translate(311.251 30.487)"/>
   <path d="M534.283,373.874A5.174,5.174,0,0,1,531,372.7l-7.268-5.939a5.188,5.188,0,0,1,.126-8.134l30.484-23.38a1.733,1.733,0,0,0,.327-2.415l-18.815-24.875a15.316,15.316,0,0,1,1.023-19.731h0a15.273,15.273,0,0,1,20.622-1.649l.119.126,19.647,28.133a17.515,17.515,0,0,1-.415,27.883l-39.481,30.134a5.2,5.2,0,0,1-3.088,1.017Z" data-name="Path 268" fill="#ccc" id="Path_268-1898" transform="translate(313.718 21.67)"/>
   <path d="M497.965,240.705V226.656L523.047,215.7l23.916,10.952v14.049a2.306,2.306,0,0,1-2.306,2.306H500.271a2.306,2.306,0,0,1-2.306-2.306Z" data-name="Path 269" fill="#2f2e41" id="Path_269-1899" transform="translate(310.07 11.332)"/>
   <circle cx="15.722" cy="15.722" data-name="Ellipse 30" fill="#2f2e41" id="Ellipse_30" r="15.722" transform="translate(838.852 199.377)"/>
   <path d="M896.5,218.806a15.715,15.715,0,0,1,18.8-15.417,15.715,15.715,0,1,0-9.764,29.629,15.709,15.709,0,0,1-9.032-14.212Z" data-name="Path 185" fill="#2f2e41" id="Path_185-1900" transform="translate(-56.438 -12.141)"/>
  </g>
 </g>
</svg>
