<svg data-name="Layer 1" viewBox="0 0 884.74802 670.84295" xmlns="http://www.w3.org/2000/svg" xmlns:xlink="http://www.w3.org/1999/xlink">
 <path d="M706.33175,497.76536a11.84427,11.84427,0,0,1,17.72317,3.96729l41.66144-5.99492-9.31782,19.78845-38.13389,2.6591a11.90846,11.90846,0,0,1-11.9329-20.41992Z" fill="#9f616a" transform="translate(-157.62599 -114.57852)"/>
 <circle cx="10.941" cy="10.941" data-name="Ellipse 457" fill="var(--primary-svg-color)" id="e487db8f-4c3a-4358-81eb-d3bded3bc3da" r="10.941"/>
 <path d="M213.656,119.85452a5.6655,5.6655,0,0,0,0,11.331h267.08a5.666,5.666,0,0,0,.186-11.33h-.186Z" data-name="Path 40" fill="var(--primary-svg-color)" id="befa8199-fde2-4595-b8af-7ec542e82337-1010" transform="translate(-157.62599 -114.57852)"/>
 <circle cx="10.941" cy="64.083" data-name="Ellipse 458" fill="var(--primary-svg-color)" id="a758fd92-4e85-4c79-add3-fb6fc696c09d" r="10.941"/>
 <path d="M213.656,172.99652a5.6655,5.6655,0,1,0,0,11.331h267.08a5.666,5.666,0,1,0,.28931-11.3283q-.05163-.00131-.1033-.0017h-.186Z" data-name="Path 40-2" fill="var(--primary-svg-color)" id="a37a06f1-eaa9-4a01-b953-86cff9fa81d3-1011" transform="translate(-157.62599 -114.57852)"/>
 <circle cx="10.941" cy="117.224" data-name="Ellipse 459" fill="#e6e6e6" id="ac0f1b1c-068a-4871-a338-e6ba48051488" r="10.941"/>
 <path d="M213.656,226.13753a5.6655,5.6655,0,1,0,0,11.331h267.08a5.666,5.666,0,0,0,.28931-11.32831q-.05163-.0013-.1033-.00169h-.186Z" data-name="Path 40-3" fill="#e6e6e6" id="a4850c8e-a5f0-41e0-b9ec-5f0f83856b1d-1012" transform="translate(-157.62599 -114.57852)"/>
 <circle cx="10.941" cy="170.36501" data-name="Ellipse 460" fill="var(--primary-svg-color)" id="a638f8ef-e148-4354-9dc8-e1896d8f3096" r="10.941"/>
 <path d="M213.656,279.28152a5.6655,5.6655,0,0,0,0,11.331h267.08a5.666,5.666,0,0,0,.186-11.33h-.186Z" data-name="Path 40-4" fill="var(--primary-svg-color)" id="a7ff1bb5-53b2-44dc-85c4-b215571fc2ba-1013" transform="translate(-157.62599 -114.57852)"/>
 <circle cx="10.941" cy="223.50701" data-name="Ellipse 461" fill="#e6e6e6" id="a897c583-e65f-4254-a57a-bb73aaaf39d3" r="10.941"/>
 <path d="M213.656,332.42053a5.6655,5.6655,0,1,0,0,11.331h267.08a5.666,5.666,0,1,0,.291-11.32827q-.0525-.00133-.105-.00171h-.186Z" data-name="Path 40-5" fill="#e6e6e6" id="b2eca06a-e605-4d26-a472-95d7e229fe7d-1014" transform="translate(-157.62599 -114.57852)"/>
 <circle cx="10.941" cy="276.648" data-name="Ellipse 462" fill="var(--primary-svg-color)" id="fdd2d72e-2338-4227-921c-6caaa64befe0" r="10.941"/>
 <path d="M213.656,385.56152a5.6655,5.6655,0,0,0,0,11.331h267.08a5.666,5.666,0,1,0,.291-11.32828q-.0525-.00133-.105-.00171h-.186Z" data-name="Path 40-6" fill="var(--primary-svg-color)" id="ba09c572-37b1-4e69-a482-664e89555f7a-1015" transform="translate(-157.62599 -114.57852)"/>
 <circle cx="10.941" cy="329.79" data-name="Ellipse 463" fill="#e6e6e6" id="a8736793-bc89-415c-8e2a-39abf3ac3501" r="10.941"/>
 <path d="M213.656,438.70352a5.6655,5.6655,0,1,0,0,11.331h267.08a5.666,5.666,0,0,0,.186-11.33h-.186Z" data-name="Path 40-7" fill="#e6e6e6" id="a2a8de98-be9e-4460-8a9d-e7919d941cd6-1016" transform="translate(-157.62599 -114.57852)"/>
 <path d="M1042.344,637.8085c-1.26,4.76-28.02,102.9-106.65,142.4q-4.92,2.47494-10.13,4.63l-.82-1.25-.96-1.46,1.32.29a6.006,6.006,0,0,0,6.77-3.4c27.46-13.06,47.93-62.18,47.93-120.6a224.32738,224.32738,0,0,0-7.88-60.21l.87-3.96,2.64-11.96c3.05-7.2,6-14.28,8.78-21.19,15.11-37.58,25.4-69.87,23.55-84.64.94,5.76,19.42,123.28-27.92,228.41C1009.514,678.69852,1038.374,650.72854,1042.344,637.8085Z" data-name="Path 2291" fill="#e6e6e6" id="f46f374a-d96c-4b13-8ac2-d4e65a9f3323-1017" transform="translate(-157.62599 -114.57852)"/>
 <path d="M770.306,533.42154c-23.39,0-43.9,24.43-55.21,60.91-.8,2.56-1.55,5.19-2.25,7.86a227.64171,227.64171,0,0,0-7.04,57.23c0,69.48,28.93,126,64.5,126s64.5-56.52,64.5-126S805.876,533.42154,770.306,533.42154Zm0,250c-34.46,0-62.5-55.63-62.5-124a226.3605,226.3605,0,0,1,7.13-57.46q.99-3.765,2.12-7.38c11.01-35.47,30.76-59.16,53.25-59.16,34.46,0,62.5,55.63,62.5,124S804.766,783.42154,770.306,783.42154Z" data-name="Path 2292" fill="#ccc" id="e647250d-3047-4512-a638-782849942d51-1018" transform="translate(-157.62599 -114.57852)"/>
 <path d="M785.806,732.27151c-12.337,0-22-32-22-72.851s9.663-72.851,22-72.851,22,32,22,72.851S798.143,732.27151,785.806,732.27151Zm0-143.7c-10.841,0-20,32.445-20,70.851s9.159,70.851,20,70.851,20-32.445,20-70.851-9.15906-70.852-20-70.852Z" data-name="Path 2293" fill="#ccc" id="b6e0ee78-0fc9-4fd9-a6a7-4c72f1af04f6-1019" transform="translate(-157.62599 -114.57852)"/>
 <polygon fill="#9f616a" points="588.665 650.627 570.238 650.626 561.471 579.549 588.668 579.55 588.665 650.627"/>
 <path d="M750.99044,783.06808l-59.4176-.0022v-.75153a23.12822,23.12822,0,0,1,23.127-23.12663h.00147l36.29025.00147Z" fill="#2f2e41" transform="translate(-157.62599 -114.57852)"/>
 <polygon fill="#9f616a" points="533.665 650.627 515.238 650.626 512.374 596.421 533.667 596.422 533.665 650.627"/>
 <path d="M695.99044,783.06808l-59.4176-.0022v-.75153a23.12822,23.12822,0,0,1,23.127-23.12663h.00147l36.29025.00147Z" fill="#2f2e41" transform="translate(-157.62599 -114.57852)"/>
 <ellipse cx="630.67999" cy="544.84199" data-name="Ellipse 464" fill="#ccc" id="b1b1c9f4-d54e-4592-9c63-445df23f17cb" rx="8.5" ry="16.732"/>
 <path d="M784.34021,410.42053l122.46577-.5v53.973l-122.46577,5.527Z" data-name="Path 2294" fill="#3f3d56" id="f44e941a-b66c-4d88-a721-24b51d5ad9fd-1020" transform="translate(-157.62599 -114.57852)"/>
 <path d="M652.804,593.47852l-2-.109,6.052-109.946h123.95v2H658.753Z" data-name="Path 2295" fill="#ccc" id="b58f069a-d623-47b5-892e-f9ab7808a08c-1021" transform="translate(-157.62599 -114.57852)"/>
 <path d="M864.056,593.58151q-1.12509,3.615-2.12,7.38l-2.09.23-65.04,7.23-149-15,155-8,61.29,7.91Z" data-name="Path 2298" fill="#3f3d56" id="e22ea18d-f293-4a33-a73b-ed60e8421477-1022" transform="translate(-157.62599 -114.57852)"/>
 <path d="M753.51727,541.31519l-3.64781,10.56851s-59.91325-18.314-70.07117,19.33989S669,737,669,737l25-1,24.87323-128.58042,119.56586-18.815-3.81441-67.07794Z" data-name="Path 2301" fill="#2f2e41" id="a6699402-999b-4e6e-ad90-ab978138004c-1023" transform="translate(-157.62599 -114.57852)"/>
 <path d="M802.306,541.92154s-82-17-88,24S722,736,722,736l24-1s27.306-113.07846,17.306-141.07846l67.66-4.185c23.356-1.445,42.436-19.894,43.779-43.256.514-8.943-1.724-17.059-9.439-21.559-24-14-68-14-68-14Z" data-name="Path 2302" fill="#2f2e41" id="a235f650-5062-4012-8f3a-261ad2de0917-1024" transform="translate(-157.62599 -114.57852)"/>
 <path d="M907.806,478.42053h-2v-76.331l32.28,9.371-.55993,1.918-29.721-8.629Z" data-name="Path 2305" fill="#3f3d56" id="f2afbaa9-bfb8-4b72-b445-b392cea48dff-1025" transform="translate(-157.62599 -114.57852)"/>
 <path d="M972.794,594.2485c-11.25-36.99-31.91-61.83-55.49-61.83-23.39,0-43.9,24.43-55.21,60.91-.8,2.56-1.55,5.19-2.25,7.86a227.69881,227.69881,0,0,0-7.04,57.23c0,69.48,28.93,126,64.5,126a33.793,33.793,0,0,0,7.435-.829c23.995-5.4,44.015-36.611,52.585-79.011a234.10972,234.10972,0,0,0,4.48-46.16C981.8,634.9985,978.514,613.04855,972.794,594.2485Zm-40.92,184.77a33.77429,33.77429,0,0,1-14.57,3.4c-34.46,0-62.5-55.63-62.5-124a226.784,226.784,0,0,1,7.13-57.46q.99-3.765,2.12-7.38c11.01-35.47,30.76-59.16,53.25-59.16,23.45,0,43.93,25.77,54.62,63.79a224.3249,224.3249,0,0,1,7.88,60.21C979.8,716.83853,959.334,765.95853,931.874,779.01852Z" data-name="Path 2306" fill="#ccc" id="f343b9ef-6bce-40be-9e20-7f308a058c8b-1026" transform="translate(-157.62599 -114.57852)"/>
 <path d="M932.806,731.27151c-12.337,0-22-32-22-72.851s9.663-72.851,22-72.851,22,32,22,72.851S945.143,731.27151,932.806,731.27151Zm0-143.7c-10.841,0-20,32.445-20,70.851s9.159,70.851,20,70.851,20-32.445,20-70.851-9.15906-70.852-20-70.852Z" data-name="Path 2307" fill="#ccc" id="a505ea39-30ac-48ca-ba3a-e75ccd21a515-1027" transform="translate(-157.62599 -114.57852)"/>
 <ellipse cx="777.67999" cy="543.84199" data-name="Ellipse 465" fill="#ccc" id="f03d9ad0-0c0f-41ab-80cb-93d2547a3abd" rx="8.5" ry="16.732"/>
 <path d="M921.806,400.42053l21,8-4,11-17-7Z" data-name="Path 2308" fill="#3f3d56" id="a8e6080c-61c5-4f01-aa67-7aa96f625933-1028" transform="translate(-157.62599 -114.57852)"/>
 <path d="M685.806,478.42053v16h59.581v-14.942Z" data-name="Path 2309" fill="#ccc" id="a2eee96a-6a4b-41e9-a0b3-a910f08ccb6d-1029" transform="translate(-157.62599 -114.57852)"/>
 <path d="M832.714,398.85852a68.14447,68.14447,0,0,1-1.34,13.14l-5.99,85.17-60.21,17.35-17.76,5.12-.81-4.72-3.03-17.57-.94-5.44,21.17-3.81,34.32-6.18,8.09-98.97s24.23547.248,24.91,2.88a51.97027,51.97027,0,0,1,1.59,13.03Z" data-name="Path 2311" fill="#e6e6e6" id="b17f412c-8414-4216-b478-6b435b114bf1-1030" transform="translate(-157.62599 -114.57852)"/>
 <path d="M886.824,297.35852a43.92049,43.92049,0,0,0-3.47-5.65,42.947,42.947,0,0,0-28.52-17.46,44.4436,44.4436,0,0,0-8.73-.46c-20,.96-37.12,15.69-40.84,36.52-.04.26-.08.5-.12.75l-.06.39-6.53,42.86,4.59.7,17.93,2.73,37.47,5.71,26.19,3.99,6.53-42.86a44.36312,44.36312,0,0,0-4.44-27.22Z" data-name="Path 2312" fill="#2f2e41" id="eea5ba4a-1a26-4f35-9e5a-0b080053be04-1031" transform="translate(-157.62599 -114.57852)"/>
 <circle cx="682.67697" cy="204.125" data-name="Ellipse 466" fill="#9f616a" id="ab090656-7648-45ea-8708-e37f087545f2" r="32.892"/>
 <path d="M879.914,380.18854l-1.29,69.12c-.3.33-.6.66-.88,1-13.68,15.79-16.34,38.31-15.79,60.04.05,2.4.15,4.79.28,7.16-10.03,4.42-20.54,9.04-30.98,12.66-2.05.71-4.09,1.39-6.12,2.01-16.84,5.18-33.18,7.18-46.63,1a38.9211,38.9211,0,0,1-12.86-9.59l-.47-9.07,12.16608-23.3845-2-29C762.97608,430.88552,776,432,785.92413,391.51849a17.612,17.612,0,0,1,12.44-9.14l7.85-1.43,54.14023-2.821,16.9697.951Z" data-name="Path 2314" fill="#e6e6e6" id="a425a037-4ce3-4f59-8323-6397659becfd-1032" transform="translate(-157.62599 -114.57852)"/>
 <path d="M882.554,297.38952l-12.154,24.808-70.61805-12.046a44.275,44.275,0,0,1,82.773-12.762Z" data-name="Path 2315" fill="#2f2e41" id="a05937e9-e548-4ea7-a2f8-3fd8429d5ba2-1033" transform="translate(-157.62599 -114.57852)"/>
 <path d="M735.277,470.63553a3.173,3.173,0,0,0-3.971-.391l-24.259,15.8a3.19105,3.19105,0,0,0-.51,4.935l61.694,61.427a3.191,3.191,0,0,0,4.51276-.00909l.03424-.03491,20.218-20.925a3.2,3.2,0,0,0-.065-4.5Z" data-name="Path 2316" fill="#ccc" id="b94b87bb-a7a5-4983-8e36-464048415619-1034" transform="translate(-157.62599 -114.57852)"/>
 <path d="M711.825,487.73553l2.511-1.6a2.392,2.392,0,0,0,3.443,3.141l16.246-11.169a2.391,2.391,0,0,0-.632-4.25l1.293-.825a.87.87,0,0,1,1.087.122l54.654,53.71a.87.87,0,0,1-.00677,1.23035l-.0152.01465-19.849,19.34a.87.87,0,0,1-1.211-.017l-57.666-58.351a.8699.8699,0,0,1,.146-1.35Z" data-name="Path 2317" fill="#fff" id="bc604b2a-3847-42fd-870e-92d398356424-1035" transform="translate(-157.62599 -114.57852)"/>
 <path d="M774.904,515.00351l-16.766,15.808-39.879-39.4,20.239-13.174Z" data-name="Path 2318" fill="var(--primary-svg-color)" id="ac762fa2-90bb-41d8-a885-991bc012af8f-1036" transform="translate(-157.62599 -114.57852)"/>
 <path d="M719.809,501.13553a.58105.58105,0,0,0,0-.821l-3.487-3.487a.594.594,0,0,0-.821,0,.58105.58105,0,0,0,0,.821l3.487,3.487A.594.594,0,0,0,719.809,501.13553Z" data-name="Path 2319" fill="#e6e6e6" id="e480653a-af79-4e16-8c94-accaff2ee601-1037" transform="translate(-157.62599 -114.57852)"/>
 <path d="M725.684,506.18951l-3.487-3.487a.58053.58053,0,0,0-.821.821h0l3.487,3.487a.58053.58053,0,0,0,.821-.821Z" data-name="Path 2320" fill="#e6e6e6" id="a653f458-f153-4835-a375-e0a32b4db210-1038" transform="translate(-157.62599 -114.57852)"/>
 <circle cx="616.89198" cy="413.99403" data-name="Ellipse 467" fill="var(--primary-svg-color)" id="ab42e678-7a46-401a-bb83-28a225d9adcf" r="3.917"/>
 <rect data-name="Rectangle 254" fill="#3f3d56" height="2" id="aebaa33f-6c3c-4439-83da-81dea445dad2" width="606.09601" x="278.65201" y="668.53101"/>
 <path d="M786.37322,531.88086a11.84426,11.84426,0,0,1,18.16124.14019l39.46-14.6466-4.9348,21.3085-36.71533,10.64183a11.90846,11.90846,0,0,1-15.97111-17.44392Z" fill="#9f616a" transform="translate(-157.62599 -114.57852)"/>
 <path d="M848,566l-25.407-48.5665,55.495-9.981-.73367-126.325v-2c24.50855,8.42365,39.00314,32.97682,33.97965,58.401l-5.994,85.171Z" data-name="Path 2322" fill="#e6e6e6" id="be70e64b-b2b4-45df-8b09-f0b4f9da8dca-1039" transform="translate(-157.62599 -114.57852)"/>
 <path d="M838.806,486.42053v16h59.581v-14.942Z" data-name="Path 2324" fill="#ccc" id="ba347e27-d543-4baf-ab12-9b56e5d70732-1040" transform="translate(-157.62599 -114.57852)"/>
 <path d="M909.807,534.45453l-.968-41.034H815.78l-2.974,110.028-2-.055,3.027-111.973h96.94l.032.966,1,42Z" data-name="Path 2323" fill="#ccc" id="bcd40c99-3e4f-4f1f-9eeb-690b177fe524-1041" transform="translate(-157.62599 -114.57852)"/>
</svg>
